<svg width="148" height="33" viewBox="0 0 148 33" fill="none" xmlns="http://www.w3.org/2000/svg">
<path d="M20.2127 3.02502H22.2752C23.7877 3.02502 25.0252 4.26252 25.0252 5.77502V14.575L20.2127 3.02502ZM27.6377 5.22502L29.4252 6.05002C30.8002 6.60003 31.4877 8.25003 30.9377 9.62503L27.6377 17.7375V5.22502ZM24.7502 21.3125L17.8752 4.81252C17.4627 3.71252 16.5002 3.16252 15.4002 3.16252C14.9877 3.16252 14.7127 3.30002 14.3002 3.43752L4.12518 7.56253C2.75018 8.11253 2.06268 9.62503 2.75018 11L9.62518 27.5C10.0377 28.6 11.0002 29.15 12.1002 29.15C12.5127 29.15 12.7877 29.15 13.2002 28.875L23.3752 24.75C24.4752 24.3375 25.0252 23.375 25.0252 22.275C24.8877 22 24.8877 21.5875 24.7502 21.3125ZM15.6752 20.625L11.2752 17.325L11.8252 11.825L16.2252 15.125L15.6752 20.625Z" fill="#EA5446"/>
<path d="M61.167 21.4545H63.894V26.6115H39V21.4545H43.293L43.698 18.5655H40.755V13.6785H44.427L44.67 11.9505H39.324V7.11747H63.408V11.9505H51.366L51.123 13.6785H61.167V21.4545ZM54.417 18.5655H50.394L49.989 21.4545H54.417V18.5655Z" fill="#302220"/>
<path d="M91.812 11.3835V22.6695C91.812 24.1455 91.587 25.1535 91.137 25.6935C90.705 26.2335 89.733 26.5755 88.221 26.7195C86.727 26.8635 83.892 26.9355 79.716 26.9355C79.41 25.1535 78.744 23.7495 77.718 22.7235C80.112 22.7235 81.876 22.7145 83.01 22.6965C84.162 22.6605 84.972 22.6065 85.44 22.5345C85.908 22.4625 86.187 22.3545 86.277 22.2105H74.397C74.253 23.3265 74.01 24.2715 73.668 25.0455C73.344 25.8195 72.894 26.4765 72.318 27.0165C71.184 26.5845 70.176 26.2425 69.294 25.9905C68.412 25.7385 67.458 25.5675 66.432 25.4775C67.116 24.9015 67.647 24.2895 68.025 23.6415C68.421 22.9755 68.691 22.1745 68.835 21.2385C68.925 20.6445 68.97 19.8435 68.97 18.8355L68.943 16.7025C68.907 15.9825 68.889 15.4065 68.889 14.9745L68.646 15.0555L65.217 11.5725C67.449 10.9785 69.123 10.1235 70.239 9.00747C70.815 8.44947 71.238 7.92747 71.508 7.44147C71.796 6.95547 71.94 6.44247 71.94 5.90247L77.286 6.41547L77.205 6.90147H88.437L90.651 8.92647C90.543 8.99847 90.372 9.08847 90.138 9.19647C89.904 9.30447 89.76 9.38547 89.706 9.43947C89.31 9.90747 88.536 10.5555 87.384 11.3835H91.812ZM75.639 10.7355L75.045 11.3835H81.822L81.147 11.0055L81.714 10.7355H75.639ZM77.853 14.6775H74.667V15.3795H77.853V14.6775ZM82.875 14.6775V15.3795H86.358V14.6775H82.875ZM74.64 18.2955C74.64 18.6375 74.631 18.8895 74.613 19.0515H77.853V18.2955H74.64ZM86.358 19.0515V18.2955H82.875V19.0515H86.358Z" fill="#302220"/>
<path d="M119.73 7.87347V12.8145H110.847V14.4885H119.46V26.9355H113.142V26.6655H101.883V26.9355H95.538V14.4885H104.151L104.178 6.41547H110.874V7.87347H119.73ZM101.883 21.8595H113.142V19.2945H101.883V21.8595Z" fill="#302220"/>
<path d="M147.972 16.1895C147.378 17.2875 146.901 18.3045 146.541 19.2405C146.181 20.1585 145.857 21.1575 145.569 22.2375C143.733 21.5715 141.915 20.9775 140.115 20.4555C138.333 19.9155 136.119 19.2855 133.473 18.5655L132.771 18.3765V27.0975H125.832V6.68547H132.771V12.0855C136.029 12.9135 141.096 14.2815 147.972 16.1895Z" fill="#302220"/>
</svg>
