<svg width="9" height="10" viewBox="0 0 9 10" fill="none" xmlns="http://www.w3.org/2000/svg">
<path d="M4.70508 8.85067C4.69453 8.89269 4.66896 8.93025 4.63245 8.95732C4.59594 8.98439 4.5506 8.99942 4.5037 8.99998C4.45681 9.00055 4.41106 8.98663 4.37379 8.96045C4.33652 8.93427 4.30988 8.89735 4.29813 8.85559C4.06821 8.03998 3.71113 7.06555 3.16863 6.48569C2.507 5.7778 1.55086 5.47649 0.664672 5.30136C0.618004 5.29196 0.576231 5.26817 0.546281 5.23394C0.516331 5.19971 0.5 5.15709 0.5 5.11316C0.5 5.06922 0.516331 5.0266 0.546281 4.99237C0.576231 4.95814 0.618004 4.93435 0.664672 4.92495C1.54216 4.75382 2.50968 4.45251 3.15291 3.81417C3.76568 3.20631 4.11139 1.98289 4.30482 1.15312C4.3146 1.11023 4.33999 1.07168 4.3768 1.04385C4.41361 1.01601 4.45964 1.00055 4.50729 1.00001C4.55494 0.999477 4.60137 1.01389 4.63891 1.04089C4.67645 1.06788 4.70286 1.10584 4.71378 1.1485C4.92931 1.97951 5.31317 3.20508 5.92661 3.81417C6.59002 4.39796 7.43006 4.78337 8.33619 4.91972C8.38296 4.92933 8.42472 4.95339 8.45453 4.9879C8.48434 5.0224 8.50038 5.06526 8.49999 5.10932C8.4996 5.15339 8.48279 5.19599 8.45238 5.23004C8.42196 5.26409 8.37978 5.28753 8.33285 5.29644C7.42423 5.46387 6.42861 5.75072 5.76731 6.45892C5.22515 7.03847 4.91358 8.02798 4.70508 8.85067Z" fill="#EA5446" stroke="#EA5446"/>
</svg>
