<svg width="151" height="139" viewBox="0 0 151 139" fill="none" xmlns="http://www.w3.org/2000/svg">
<path d="M93.7499 122.844C72.4931 137.174 49.7965 140.049 37.8247 128.216C27.6918 118.201 27.7997 100.177 36.3673 81.6475C23.8548 86.9542 12.2277 86.8792 5.49208 80.2217C-5.92973 68.9325 1.03928 42.9903 21.0578 22.2784C41.0763 1.56643 66.5637 -6.07215 77.9855 5.21714C84.5213 11.6771 85.0353 22.9349 80.5283 35.2652C99.1037 25.5323 117.545 24.7356 127.925 34.9949C138.076 45.0276 137.95 63.0968 129.337 81.6609C136.635 79.3409 143.202 79.8987 147.226 83.8767C155.075 91.634 150.286 109.46 136.53 123.692C122.775 137.924 105.262 143.172 97.4133 135.415C94.4084 132.445 93.256 127.999 93.7499 122.844Z" fill="#FEB393"/>
</svg>
