<svg width="325" height="63" viewBox="0 0 325 63" fill="none" xmlns="http://www.w3.org/2000/svg">
<rect width="62.4454" height="62.4454" rx="31.2227" fill="#302220"/>
<path d="M25.027 27.1246V29.3598L25.843 29.2889C25.7957 30.6844 25.7721 32.7778 25.7721 35.5689L25.027 35.6399V39.0105C25.027 40.9737 24.8496 42.3338 24.4948 43.0907C24.1636 43.824 23.5013 44.2971 22.5079 44.5099C21.5381 44.6992 19.6931 44.8411 16.9729 44.9357L16.1569 44.9712C16.0386 43.5047 15.8849 42.2983 15.6956 41.3522C15.5064 40.3824 15.1398 39.3653 14.5957 38.3009C15.5182 38.3009 16.1687 38.2654 16.5472 38.1944C16.9493 38.0998 17.1858 37.9697 17.2568 37.8042C17.3514 37.6149 17.3987 37.3193 17.3987 36.9172V36.3849L15.1634 36.5623C15.0925 35.0722 15.0097 33.8422 14.9151 32.8724C14.8441 31.8789 14.714 30.8973 14.5248 29.9275C15.8021 29.8802 16.76 29.8329 17.3987 29.7856V27.1246H15.1634V20.8446H17.3987V17.9352H25.027V20.8446H25.7721V27.1246H25.027ZM49.1536 22.3347C47.5688 22.5476 46.0786 22.725 44.6831 22.8669L43.2284 23.0443C44.2928 23.3282 45.2035 23.5411 45.9604 23.683C46.7409 23.8012 47.758 23.8722 49.0117 23.8959C49.0117 25.8591 48.6924 27.2783 48.0537 28.1535C47.4151 29.005 46.3625 29.4545 44.896 29.5018C42.2468 29.5964 39.3847 29.6437 36.3097 29.6437C34.039 29.6437 31.7091 29.6082 29.3201 29.5372C28.3266 29.5136 27.6407 29.2297 27.2622 28.6857C26.9074 28.1417 26.73 27.1955 26.73 25.8473V18.3254H34.0035V19.4963C37.1967 19.0705 40.3308 18.562 43.4058 17.9706L49.1536 22.3347ZM37.1258 24.8538C38.1665 24.8538 38.9353 24.8184 39.432 24.7474C39.9524 24.6764 40.319 24.5345 40.5319 24.3216C40.7684 24.0851 40.9103 23.7303 40.9576 23.2572C38.1665 23.5411 35.8485 23.8131 34.0035 24.0733C34.0272 24.4044 34.2282 24.6173 34.6067 24.7119C35.0088 24.8065 35.8485 24.8538 37.1258 24.8538ZM26.6945 30.2114H47.7699V45.0776H40.8867V44.7228H33.6132V45.0776H26.6945V30.2114ZM40.8867 35.2851V34.54H33.6132V35.2851H40.8867ZM33.6132 39.9685H40.8867V39.2234H33.6132V39.9685Z" fill="white"/>
<rect x="52.4531" width="62.4454" height="62.4454" rx="31.2227" fill="#302220"/>
<path d="M91.9916 45.1341L91.9561 18.3819H100.613V45.1341H91.9916ZM68.61 23.9524V18.5593H90.5014V30.2679H76.8414L76.735 31.1549H90.5014V37.3284C90.5014 39.4809 90.2412 41.1248 89.7208 42.2602C89.2004 43.3719 88.4908 44.117 87.592 44.4955C86.6932 44.8503 85.5578 45.0277 84.1859 45.0277H79.7508C75.8007 45.0277 73.0332 44.9922 71.4484 44.9212C71.3065 44.5901 71.2119 44.3417 71.1646 44.1762C70.5733 42.7333 70.0174 41.5388 69.497 40.5926C69.0003 39.6465 68.3025 38.7358 67.4037 37.8606L72.4064 38.18C73.66 38.2746 74.6771 38.3337 75.4577 38.3574C76.2619 38.3574 77.35 38.3574 78.7219 38.3574L81.6313 38.3929C81.7969 38.3929 81.8915 38.3219 81.9151 38.18C81.9388 38.0144 81.9506 37.5886 81.9506 36.9027H68.2197L69.3551 25.1232H81.9861V23.9524H68.61Z" fill="white"/>
<rect x="104.906" width="62.4454" height="62.4454" rx="31.2227" fill="#302220"/>
<path d="M141.393 24.1652C141.37 27.6896 142.446 30.4571 144.622 32.4676C146.798 34.4782 150.133 35.9329 154.628 36.8317C153.965 37.8961 153.386 38.996 152.889 40.1314C152.392 41.2668 151.836 42.6742 151.221 44.3536C151.08 44.6847 150.89 45.1814 150.654 45.8437C147.815 45.1105 145.166 43.845 142.706 42.0473C140.246 40.226 138.283 37.9434 136.816 35.1996C135.326 37.9198 133.339 40.1905 130.856 42.0119C128.396 43.8332 125.77 45.1105 122.979 45.8437C122.743 45.1814 122.553 44.6847 122.411 44.3536C121.796 42.6742 121.241 41.2668 120.744 40.1314C120.247 38.996 119.668 37.8961 119.005 36.8317C123.476 35.9565 126.787 34.5137 128.94 32.5031C131.092 30.4926 132.18 27.7133 132.204 24.1652L132.239 17.8143L141.429 17.8852L141.393 24.1652Z" fill="white"/>
<rect x="157.363" width="62.4454" height="62.4454" rx="31.2227" fill="#302220"/>
<path d="M194.099 38.3123H205.417V45.16H173.13V38.3123H184.874V36.2544H175.862V33.3805L174.975 34.1966C174.384 32.4699 173.816 30.9915 173.272 29.7615C172.751 28.5079 172.125 27.3016 171.391 26.1425C172.598 25.3147 173.556 24.2266 174.265 22.8783C174.999 21.5301 175.377 20.0163 175.401 18.3369L183.419 18.4078C183.23 19.7561 183.088 20.6194 182.993 20.9979H184.874V18.4078H194.099V20.9979H204.707V27.5972H194.099V29.6551H203.749V36.2544H194.099V38.3123ZM184.874 29.6551V27.5972H180.439C180.037 28.3068 179.599 28.9928 179.126 29.6551H184.874Z" fill="white"/>
<rect x="209.816" width="62.4454" height="62.4454" rx="31.2227" fill="#302220"/>
<path d="M258.225 26.4973H240.662L240.627 27.3489H256.096V37.035C256.096 39.8261 255.789 41.7421 255.174 42.7828C254.559 43.8236 253.246 44.4977 251.235 44.8052C249.248 45.089 245.558 45.231 240.165 45.231C239.598 43.7171 239.136 42.5463 238.782 41.7184C238.427 40.8669 237.954 39.968 237.362 39.0219C236.18 40.6777 234.701 42.0969 232.927 43.2795C231.177 44.4386 229.249 45.2546 227.144 45.7277C226.742 44.1192 226.269 42.6882 225.725 41.4346C225.181 40.1573 224.4 38.7854 223.383 37.3188C225.086 37.1769 226.494 36.8576 227.605 36.3609C228.717 35.8405 229.663 35.1072 230.444 34.1611C230.964 33.5461 231.319 32.7655 231.508 31.8194C231.721 30.8732 231.828 29.6669 231.828 28.2004L231.792 26.4973H225.583V19.898H237.362V18.124H246.091V19.898H258.225V26.4973ZM247.261 33.7708H239.704C239.373 35.0245 238.924 36.2308 238.356 37.3898C241.596 37.5081 243.654 37.5672 244.53 37.5672C245.381 37.5672 245.996 37.5317 246.374 37.4608C246.753 37.3898 246.989 37.2715 247.084 37.106C247.202 36.9404 247.261 36.6684 247.261 36.2899V33.7708Z" fill="white"/>
<rect x="262.27" width="62.4454" height="62.4454" rx="31.2227" fill="#302220"/>
<path d="M299.072 19.6142H310.248V40.5121C310.248 41.7657 310.083 42.7237 309.752 43.386C309.421 44.0246 308.664 44.5214 307.481 44.8762C306.322 45.2073 304.489 45.3729 301.981 45.3729C300.893 45.3729 300.042 45.3611 299.427 45.3374C299.309 43.7526 299.131 42.4162 298.895 41.3281H293.289V42.6054H287.044V26.9941H301.662V38.6671C301.993 38.6434 302.206 38.5961 302.301 38.5252C302.419 38.4542 302.478 38.336 302.478 38.1704V26.0716H286.157V45.3374H278.281V19.6142H289.563L289.705 18.2659H299.214L299.072 19.6142ZM295.347 32.7419H293.289V35.3674H295.347V32.7419Z" fill="white"/>
</svg>
