<svg width="110" height="100" viewBox="0 0 110 100" fill="none" xmlns="http://www.w3.org/2000/svg">
<path d="M68.2947 88.3772C52.8096 98.6865 36.2756 100.755 27.5544 92.2419C20.1728 85.0367 20.2515 72.0701 26.4927 58.7392C17.3777 62.557 8.90759 62.503 4.00085 57.7135C-4.31967 49.5917 0.757089 30.9283 15.3401 16.0276C29.9231 1.12693 48.4901 -4.36845 56.8107 3.75334C61.5718 8.40078 61.9462 16.4999 58.663 25.3706C72.1947 18.3686 85.6291 17.7954 93.1904 25.1762C100.585 32.394 100.493 45.3934 94.2193 58.7488C99.5356 57.0798 104.319 57.4811 107.251 60.3429C112.968 65.9237 109.48 78.748 99.4592 88.9868C89.4387 99.2257 76.6806 103.002 70.9633 97.4209C68.7743 95.2843 67.9348 92.0858 68.2947 88.3772Z" fill="#FFB3A4"/>
</svg>
