<svg width="330" height="520" viewBox="0 0 330 520" fill="none" xmlns="http://www.w3.org/2000/svg">
<g clip-path="url(#clip0_2242_32032)">
<rect width="330" height="520" rx="40" fill="#A4C7EF"/>
<path d="M68.27 159.224C42.6493 176.281 15.293 179.703 0.86343 165.618C-11.3497 153.697 -11.2196 132.243 -0.893144 110.187C-15.9744 116.503 -29.9885 116.414 -38.107 108.49C-51.8737 95.0517 -43.4739 64.1723 -19.3457 39.5184C4.78262 14.8646 35.5026 5.7722 49.2692 19.2101C57.1468 26.8995 57.7663 40.2999 52.334 54.9768C74.7229 43.3916 96.9506 42.4433 109.461 54.6551C121.696 66.5973 121.544 88.1054 111.164 110.203C119.96 107.441 127.874 108.105 132.725 112.84C142.184 122.074 136.413 143.292 119.833 160.233C103.254 177.173 82.145 183.421 72.6854 174.187C69.0637 170.652 67.6747 165.36 68.27 159.224Z" fill="#D9E9FB"/>
<path d="M84.2297 356.581C71.7862 384.733 50.5529 402.318 30.8152 398.192C14.1094 394.7 2.69199 376.536 -0.449693 352.385C-9.77513 365.816 -21.6425 373.27 -32.7474 370.949C-51.5782 367.012 -61.0855 336.455 -53.9824 302.699C-46.8792 268.942 -25.8556 244.767 -7.02474 248.704C3.75064 250.956 11.4731 261.925 14.7775 277.223C27.4354 255.422 45.6725 242.679 62.7853 246.257C79.5203 249.755 90.9484 267.977 94.0666 292.191C100.001 285.135 107.033 281.443 113.668 282.83C126.608 285.535 133.141 306.532 128.26 329.727C123.379 352.923 108.933 369.534 95.9934 366.829C91.0394 365.793 87.0245 362.077 84.2297 356.581Z" fill="#8FBBED"/>
<path d="M328.694 208.818C313.921 235.821 291.281 251.552 271.961 245.777C255.609 240.888 245.764 221.826 244.67 197.496C234.245 210.093 221.792 216.52 210.922 213.27C192.49 207.76 185.594 176.511 195.518 143.473C205.442 110.435 228.429 88.1196 246.861 93.6301C257.408 96.7832 264.178 108.364 266.181 123.886C280.632 103.23 299.879 92.0707 316.629 97.0784C333.009 101.975 342.86 121.096 343.926 145.486C350.434 138.957 357.752 135.87 364.247 137.812C376.912 141.598 381.651 163.071 374.832 185.773C368.012 208.474 352.217 223.808 339.552 220.021C334.703 218.572 331.016 214.529 328.694 208.818Z" fill="#8FBBED"/>
<circle cx="164.864" cy="260.591" r="116.409" fill="#FACF74" stroke="#FDA53E" stroke-width="2.36364"/>
<path d="M235.773 191.455C237.191 188.145 235.182 186.136 234 185.545C236.758 185.742 241.091 186.727 240.5 190.273C239.908 193.824 236.955 198.545 241.682 200.909C232.227 199.136 234 195.591 235.773 191.455Z" fill="#F37316" stroke="#F37316" stroke-width="1.18182" stroke-linecap="round" stroke-linejoin="round"/>
<path d="M221 333.864C223.001 335.249 226.71 339.16 228.687 341.932C229.246 342.716 230.585 342.777 231.143 341.992C233.032 339.33 236.232 335.636 239.909 335.636M234 332.682C231.636 331.5 228.445 328.782 229.864 325" stroke="#F37316" stroke-width="2.95455" stroke-linecap="round"/>
<circle cx="164.274" cy="261.182" r="81.5455" fill="#FACF74" stroke="#FDA53E" stroke-width="2.36364"/>
<path d="M94.5469 254.883V260.07M94.5469 260.07V266.739M94.5469 260.07L197.109 261.16M234.001 257.106V261.552M234.001 261.552V265.257M234.001 261.552L228.836 261.497M197.109 261.16L206.701 261.262M197.109 261.16V254.883M197.109 261.16V265.257M206.701 261.262L228.836 261.497M206.701 261.262V252.16C206.701 251.043 207.886 250.327 208.868 250.851L228.836 261.497M206.701 261.262V270.264C206.701 271.367 207.858 272.084 208.839 271.589L228.836 261.497M163.167 192.636V329.727M163.167 329.727H159.478M163.167 329.727H166.857M210.39 211.162L212.973 214.126M212.973 214.126L215.555 217.09M212.973 214.126L115.207 308.978M115.207 308.978L112.255 306.014M115.207 308.978L118.158 311.942M210.481 306.773L207.472 309.299M207.472 309.299L204.463 311.826M207.472 309.299L115.249 209.005M115.249 209.005L118.266 206.108M115.249 209.005L112.232 211.901M157.265 229.688H169.07M170.546 197.082C170.546 201.175 167.242 204.493 163.167 204.493C159.092 204.493 155.789 201.175 155.789 197.082M149.886 306.014C150.188 306.717 150.587 307.287 151.05 307.674C151.513 308.061 152.025 308.254 152.542 308.236C153.06 308.254 153.572 308.061 154.035 307.674C154.497 307.287 154.897 306.717 155.199 306.014C155.5 305.311 155.9 304.741 156.363 304.354C156.825 303.967 157.338 303.774 157.855 303.792C158.372 303.774 158.884 303.967 159.347 304.354C159.81 304.741 160.209 305.311 160.511 306.014C160.813 306.717 161.212 307.287 161.675 307.674C162.138 308.061 162.65 308.254 163.167 308.236C163.685 308.254 164.197 308.061 164.66 307.674C165.122 307.287 165.522 306.717 165.824 306.014C166.125 305.311 166.525 304.741 166.988 304.354C167.45 303.967 167.963 303.774 168.48 303.792C168.997 303.774 169.509 303.967 169.972 304.354C170.435 304.741 170.834 305.311 171.136 306.014C171.438 306.717 171.837 307.287 172.3 307.674C172.763 308.061 173.275 308.254 173.792 308.236C174.31 308.254 174.822 308.061 175.285 307.674C175.748 307.287 176.147 306.717 176.449 306.014M149.886 313.424C150.188 314.128 150.587 314.697 151.05 315.085C151.513 315.472 152.025 315.665 152.542 315.646C153.06 315.665 153.572 315.472 154.035 315.085C154.497 314.697 154.897 314.128 155.199 313.424C155.5 312.721 155.9 312.151 156.363 311.764C156.825 311.377 157.338 311.184 157.855 311.203C158.372 311.184 158.884 311.377 159.347 311.764C159.81 312.151 160.209 312.721 160.511 313.424C160.813 314.128 161.212 314.697 161.675 315.085C162.138 315.472 162.65 315.665 163.167 315.646C163.685 315.665 164.197 315.472 164.66 315.085C165.122 314.697 165.522 314.128 165.824 313.424C166.125 312.721 166.525 312.151 166.988 311.764C167.45 311.377 167.963 311.184 168.48 311.203C168.997 311.184 169.509 311.377 169.972 311.764C170.435 312.151 170.834 312.721 171.136 313.424C171.438 314.128 171.837 314.697 172.3 315.085C172.763 315.472 173.275 315.665 173.792 315.646C174.31 315.665 174.822 315.472 175.285 315.085C175.748 314.697 176.147 314.128 176.449 313.424M124.799 260.07C124.799 265.391 120.504 269.704 115.207 269.704C109.909 269.704 105.615 265.391 105.615 260.07C105.615 254.75 109.909 250.437 115.207 250.437C120.504 250.437 124.799 254.75 124.799 260.07ZM170.546 216.349C170.546 220.442 167.242 223.76 163.167 223.76C159.092 223.76 155.789 220.442 155.789 216.349C155.789 212.257 159.092 208.939 163.167 208.939C167.242 208.939 170.546 212.257 170.546 216.349ZM188.254 261.552C188.254 275.058 177.353 286.006 163.905 286.006C150.458 286.006 139.556 275.058 139.556 261.552C139.556 248.047 150.458 237.098 163.905 237.098C177.353 237.098 188.254 248.047 188.254 261.552Z" stroke="#F37316" stroke-width="2.95455" stroke-linecap="round" stroke-linejoin="round"/>
<path d="M170.181 352.182C170.834 352.182 171.363 352.711 171.363 353.363L171.363 367.545C171.363 368.198 170.834 368.727 170.181 368.727L164.533 368.727C163.063 368.727 161.806 368.491 160.762 368.018C159.703 367.545 158.889 366.868 158.32 365.985C157.751 365.103 157.466 364.055 157.466 362.842C157.466 361.628 157.751 360.58 158.32 359.698C158.889 358.831 159.703 358.162 160.762 357.689C161.806 357.232 163.063 357.003 164.533 357.003L168.686 357.003C169.046 357.003 169.228 357.438 168.975 357.694V357.694C168.72 357.952 168.28 357.772 168.28 357.409L168.28 353.363C168.28 352.711 168.809 352.182 169.462 352.182L170.181 352.182ZM159.886 352.182C160.272 352.182 160.633 352.37 160.854 352.686L163.399 356.326C163.947 357.11 163.387 358.185 162.431 358.185L162.017 358.185C161.632 358.185 161.271 357.998 161.05 357.683L158.49 354.043C157.94 353.26 158.5 352.182 159.457 352.182L159.886 352.182ZM168.28 359.117C168.28 358.74 168.741 358.558 168.999 358.833V358.833C169.248 359.098 169.06 359.533 168.696 359.533L164.676 359.533C163.316 359.533 162.296 359.824 161.616 360.407C160.921 360.99 160.573 361.802 160.573 362.842C160.573 363.897 160.921 364.709 161.616 365.276C162.296 365.843 163.316 366.127 164.676 366.127L168.702 366.127C169.068 366.127 169.261 366.562 169.014 366.833V366.833C168.755 367.118 168.28 366.934 168.28 366.549L168.28 359.117Z" fill="#F37316"/>
<path d="M63.8051 269.454C62.2155 269.454 60.8003 269.127 59.5597 268.471C58.319 267.797 57.34 266.88 56.6228 265.719C55.9055 264.558 55.5469 263.238 55.5469 261.759C55.5469 260.261 55.9055 258.941 56.6228 257.798C57.34 256.637 58.319 255.729 59.5597 255.074C60.8003 254.419 62.2155 254.091 63.8051 254.091C65.4141 254.091 66.8389 254.419 68.0795 255.074C69.3396 255.729 70.3186 256.628 71.0164 257.77C71.7337 258.912 72.0923 260.242 72.0923 261.759C72.0923 263.238 71.7337 264.558 71.0164 265.719C70.3186 266.88 69.3396 267.797 68.0795 268.471C66.8389 269.127 65.4141 269.454 63.8051 269.454ZM63.8051 266.449C64.6968 266.449 65.4916 266.262 66.1895 265.887C66.8873 265.513 67.4301 264.97 67.8178 264.258C68.2249 263.547 68.4285 262.714 68.4285 261.759C68.4285 260.785 68.2249 259.952 67.8178 259.259C67.4301 258.547 66.8873 258.004 66.1895 257.63C65.4916 257.255 64.7065 257.068 63.8341 257.068C62.9424 257.068 62.1476 257.255 61.4497 257.63C60.7712 258.004 60.2285 258.547 59.8214 259.259C59.4143 259.952 59.2107 260.785 59.2107 261.759C59.2107 262.714 59.4143 263.547 59.8214 264.258C60.2285 264.97 60.7712 265.513 61.4497 265.887C62.1476 266.262 62.9327 266.449 63.8051 266.449Z" fill="#F37316"/>
<path d="M163.182 170.182C162.53 170.182 162.001 169.652 162.001 169V158.743C162.001 158.09 161.471 157.561 160.819 157.561H157.182C156.529 157.561 156 157.032 156 156.379V156C156 155.347 156.529 154.818 157.182 154.818H170.182C170.835 154.818 171.364 155.347 171.364 156V156.379C171.364 157.032 170.835 157.561 170.182 157.561H166.545C165.892 157.561 165.363 158.09 165.363 158.743V169C165.363 169.652 164.834 170.182 164.181 170.182H163.182Z" fill="#F37316"/>
<path d="M256.456 256.604C256.456 255.435 257.672 254.663 258.73 255.16L272.65 261.707C273.586 262.148 274.184 263.089 274.184 264.124V264.124C274.184 265.158 273.587 266.099 272.653 266.54L258.765 273.092C257.692 273.599 256.456 272.816 256.456 271.629V271.629C256.456 270.992 256.83 270.414 257.412 270.153L271.808 263.69C272.103 263.558 272.436 263.774 272.436 264.097V264.097C272.436 264.42 272.103 264.636 271.808 264.504L257.4 258.06C256.826 257.803 256.456 257.233 256.456 256.604V256.604ZM260.559 259.764C260.559 258.87 261.445 258.247 262.287 258.549V258.549C262.8 258.733 263.142 259.219 263.142 259.764L263.142 267.952C263.142 268.498 262.8 268.984 262.287 269.168V269.168C261.445 269.47 260.559 268.846 260.559 267.952L260.559 259.764Z" fill="#F37316"/>
<path d="M86.2917 190.235C88.5296 189.404 90.7062 189.41 93.9853 185.702C95.7511 183.705 95.3463 179.314 97.9806 179.441C100.55 179.564 104.114 188.33 107.214 188.215C108 188.185 108.621 187.916 108.699 187.902M91.9045 192.33C94.3658 192.695 98.7104 194.523 96.3982 198.914" stroke="#F37316" stroke-width="2.95455" stroke-linecap="round" stroke-linejoin="round"/>
<path d="M92.7717 340.954C93.3626 339.772 94.1898 337.054 92.7717 335.636C91.9492 334.814 90.1594 334.349 88.4167 334.104C87.3139 333.948 86.8188 332.464 87.6844 331.763L97.4989 323.818" stroke="#F37316" stroke-width="2.95455" stroke-linecap="round"/>
<path d="M278.213 504.489C250.585 526.921 219.477 533.834 201.342 519.175C185.992 506.767 183.809 482.038 193.294 455.507C176.627 464.421 160.49 465.84 150.287 457.592C132.984 443.606 139.293 407.12 164.378 376.099C189.464 345.077 223.826 331.266 241.128 345.252C251.029 353.255 253.199 368.626 248.543 386.124C273.047 370.346 298.522 366.84 314.246 379.55C329.623 391.979 331.786 416.774 322.243 443.357C332.065 439.221 341.245 439.126 347.341 444.055C359.231 453.665 354.895 478.736 337.658 500.052C320.422 521.368 296.81 530.858 284.921 521.248C280.369 517.568 278.195 511.622 278.213 504.489Z" fill="#D9E9FB"/>
<rect x="17.5469" y="452.636" width="294.636" height="46.1818" rx="23.0909" fill="white"/>
<path d="M37.9425 481.415C37.9269 481.478 37.8892 481.533 37.8352 481.573C37.7813 481.613 37.7143 481.635 37.645 481.636C37.5758 481.637 37.5082 481.616 37.4531 481.578C37.3981 481.539 37.3587 481.484 37.3413 481.423C37.0017 480.218 36.4742 478.778 35.6728 477.922C34.6954 476.876 33.2829 476.431 31.9737 476.172C31.9048 476.158 31.8431 476.123 31.7988 476.073C31.7546 476.022 31.7305 475.959 31.7305 475.894C31.7305 475.829 31.7546 475.766 31.7988 475.716C31.8431 475.665 31.9048 475.63 31.9737 475.616C33.27 475.363 34.6993 474.918 35.6495 473.975C36.5548 473.077 37.0655 471.27 37.3512 470.044C37.3657 469.981 37.4032 469.924 37.4576 469.883C37.5119 469.842 37.5799 469.819 37.6503 469.818C37.7207 469.817 37.7893 469.838 37.8448 469.878C37.9002 469.918 37.9392 469.974 37.9554 470.037C38.2738 471.265 38.8408 473.075 39.747 473.975C40.7271 474.838 41.9681 475.407 43.3067 475.608C43.3757 475.623 43.4374 475.658 43.4815 475.709C43.5255 475.76 43.5492 475.823 43.5486 475.888C43.5481 475.954 43.5232 476.016 43.4783 476.067C43.4334 476.117 43.371 476.152 43.3017 476.165C41.9595 476.412 40.4886 476.836 39.5117 477.882C38.7108 478.738 38.2505 480.2 37.9425 481.415Z" fill="#FAC962" stroke="#FAC962" stroke-width="1.18182"/>
<path d="M62.6018 482.982C61.4531 482.982 60.4391 482.748 59.5598 482.28C58.6805 481.798 57.9856 481.117 57.4751 480.238C56.9787 479.345 56.7305 478.288 56.7305 477.069V467.836H59.7725V477.26C59.7725 477.813 59.886 478.324 60.1129 478.792C60.3398 479.245 60.666 479.614 61.0914 479.898C61.5169 480.167 62.0203 480.302 62.6018 480.302C63.1833 480.302 63.6867 480.167 64.1122 479.898C64.5376 479.614 64.8638 479.245 65.0907 478.792C65.3176 478.324 65.4311 477.813 65.4311 477.26V467.836H68.4731V477.26C68.4731 477.813 68.5865 478.324 68.8134 478.792C69.0403 479.245 69.3665 479.614 69.792 479.898C70.2174 480.167 70.7209 480.302 71.3023 480.302C71.8838 480.302 72.3873 480.167 72.8127 479.898C73.2382 479.614 73.5643 479.245 73.7913 478.792C74.0182 478.324 74.1316 477.813 74.1316 477.26V467.836H77.1736V477.069C77.1736 478.288 76.9183 479.345 76.4078 480.238C75.9114 481.117 75.2236 481.798 74.3443 482.28C73.4651 482.748 72.4511 482.982 71.3023 482.982C70.7067 482.982 70.1394 482.904 69.6005 482.748C69.0616 482.607 68.5723 482.387 68.1327 482.089C67.6931 481.791 67.296 481.437 66.9414 481.025C66.6011 481.437 66.204 481.791 65.7502 482.089C65.3105 482.373 64.8213 482.592 64.2823 482.748C63.7576 482.904 63.1974 482.982 62.6018 482.982ZM80.3657 482.727V467.836H83.4077V473.814H89.9171V467.836H92.9591V482.727H89.9171V476.494H83.4077V482.727H80.3657ZM100.18 482.727C99.357 482.727 98.6054 482.529 97.9247 482.131C97.2581 481.734 96.7263 481.203 96.3292 480.536C95.9321 479.855 95.7336 479.104 95.7336 478.281C95.7336 477.685 95.8612 477.125 96.1165 476.601C96.3718 476.076 96.7192 475.615 97.1588 475.218C96.7192 474.821 96.3718 474.36 96.1165 473.835C95.8612 473.31 95.7336 472.757 95.7336 472.176C95.7336 471.367 95.925 470.637 96.3079 469.985C96.705 469.332 97.2298 468.815 97.8821 468.432C98.5487 468.035 99.279 467.836 100.073 467.836H106.2V470.517H100.414C100.116 470.517 99.8392 470.595 99.5839 470.751C99.3428 470.892 99.1443 471.091 98.9883 471.346C98.8465 471.587 98.7756 471.864 98.7756 472.176C98.7756 472.474 98.8465 472.75 98.9883 473.005C99.1443 473.247 99.3428 473.445 99.5839 473.601C99.8392 473.743 100.116 473.814 100.414 473.814H105.476V476.494H100.541C100.215 476.494 99.9172 476.579 99.6478 476.749C99.3783 476.905 99.1656 477.118 99.0096 477.388C98.8536 477.657 98.7756 477.955 98.7756 478.281C98.7756 478.607 98.8536 478.905 99.0096 479.175C99.1656 479.444 99.3783 479.657 99.6478 479.813C99.9172 479.969 100.215 480.047 100.541 480.047H106.2V482.727H100.18ZM112.779 482.727C111.956 482.727 111.204 482.529 110.524 482.131C109.857 481.734 109.325 481.203 108.928 480.536C108.531 479.855 108.333 479.104 108.333 478.281C108.333 477.685 108.46 477.125 108.716 476.601C108.971 476.076 109.318 475.615 109.758 475.218C109.318 474.821 108.971 474.36 108.716 473.835C108.46 473.31 108.333 472.757 108.333 472.176C108.333 471.367 108.524 470.637 108.907 469.985C109.304 469.332 109.829 468.815 110.481 468.432C111.148 468.035 111.878 467.836 112.672 467.836H118.799V470.517H113.013C112.715 470.517 112.438 470.595 112.183 470.751C111.942 470.892 111.743 471.091 111.587 471.346C111.446 471.587 111.375 471.864 111.375 472.176C111.375 472.474 111.446 472.75 111.587 473.005C111.743 473.247 111.942 473.445 112.183 473.601C112.438 473.743 112.715 473.814 113.013 473.814H118.076V476.494H113.14C112.814 476.494 112.516 476.579 112.247 476.749C111.977 476.905 111.765 477.118 111.609 477.388C111.453 477.657 111.375 477.955 111.375 478.281C111.375 478.607 111.453 478.905 111.609 479.175C111.765 479.444 111.977 479.657 112.247 479.813C112.516 479.969 112.814 480.047 113.14 480.047H118.799V482.727H112.779ZM125.739 482.727C124.86 482.727 124.087 482.529 123.421 482.131C122.754 481.72 122.237 481.181 121.868 480.515C121.499 479.834 121.315 479.089 121.315 478.281V467.836H124.357V478.643C124.357 479.026 124.491 479.359 124.761 479.643C125.03 479.912 125.357 480.047 125.739 480.047H129.675V482.727H125.739ZM145.02 483.004C143.829 483.004 142.751 482.805 141.787 482.408C140.836 481.997 140.021 481.437 139.34 480.727C138.659 480.018 138.135 479.196 137.766 478.26C137.397 477.324 137.213 476.324 137.213 475.26C137.213 474.197 137.397 473.204 137.766 472.282C138.135 471.346 138.659 470.524 139.34 469.815C140.021 469.105 140.836 468.552 141.787 468.155C142.751 467.758 143.829 467.56 145.02 467.56C146.211 467.56 147.282 467.758 148.232 468.155C149.197 468.552 150.019 469.105 150.7 469.815C151.381 470.524 151.905 471.346 152.274 472.282C152.643 473.204 152.827 474.197 152.827 475.26C152.827 476.324 152.643 477.324 152.274 478.26C151.905 479.196 151.381 480.018 150.7 480.727C150.019 481.437 149.197 481.997 148.232 482.408C147.282 482.805 146.211 483.004 145.02 483.004ZM145.02 480.302C145.701 480.302 146.332 480.181 146.913 479.94C147.495 479.685 147.998 479.331 148.424 478.877C148.863 478.409 149.197 477.87 149.423 477.26C149.665 476.65 149.785 475.984 149.785 475.26C149.785 474.537 149.665 473.871 149.423 473.261C149.197 472.651 148.863 472.119 148.424 471.665C147.998 471.211 147.495 470.864 146.913 470.623C146.332 470.368 145.701 470.24 145.02 470.24C144.339 470.24 143.708 470.368 143.127 470.623C142.545 470.864 142.035 471.211 141.595 471.665C141.17 472.119 140.836 472.651 140.595 473.261C140.368 473.871 140.255 474.537 140.255 475.26C140.255 475.984 140.368 476.65 140.595 477.26C140.836 477.87 141.17 478.409 141.595 478.877C142.035 479.331 142.545 479.685 143.127 479.94C143.708 480.181 144.339 480.302 145.02 480.302ZM155.123 482.727V472.176C155.123 471.367 155.315 470.637 155.698 469.985C156.095 469.332 156.62 468.815 157.272 468.432C157.938 468.035 158.669 467.836 159.463 467.836H164.845V470.517H159.803C159.35 470.517 158.96 470.68 158.633 471.006C158.321 471.332 158.165 471.722 158.165 472.176V474.58H164.122V477.26H158.165V482.727H155.123ZM173.3 482.727V472.176C173.3 471.367 173.491 470.637 173.874 469.985C174.271 469.332 174.796 468.815 175.448 468.432C176.115 468.035 176.845 467.836 177.64 467.836H183.022V470.517H177.98C177.526 470.517 177.136 470.68 176.81 471.006C176.498 471.332 176.342 471.722 176.342 472.176V474.58H182.298V477.26H176.342V482.727H173.3ZM192.633 483.004C191.441 483.004 190.364 482.805 189.399 482.408C188.449 481.997 187.634 481.437 186.953 480.727C186.272 480.018 185.747 479.196 185.379 478.26C185.01 477.324 184.826 476.324 184.826 475.26C184.826 474.197 185.01 473.204 185.379 472.282C185.747 471.346 186.272 470.524 186.953 469.815C187.634 469.105 188.449 468.552 189.399 468.155C190.364 467.758 191.441 467.56 192.633 467.56C193.824 467.56 194.895 467.758 195.845 468.155C196.809 468.552 197.632 469.105 198.312 469.815C198.993 470.524 199.518 471.346 199.887 472.282C200.255 473.204 200.44 474.197 200.44 475.26C200.44 476.324 200.255 477.324 199.887 478.26C199.518 479.196 198.993 480.018 198.312 480.727C197.632 481.437 196.809 481.997 195.845 482.408C194.895 482.805 193.824 483.004 192.633 483.004ZM192.633 480.302C193.313 480.302 193.944 480.181 194.526 479.94C195.107 479.685 195.611 479.331 196.036 478.877C196.476 478.409 196.809 477.87 197.036 477.26C197.277 476.65 197.398 475.984 197.398 475.26C197.398 474.537 197.277 473.871 197.036 473.261C196.809 472.651 196.476 472.119 196.036 471.665C195.611 471.211 195.107 470.864 194.526 470.623C193.944 470.368 193.313 470.24 192.633 470.24C191.952 470.24 191.321 470.368 190.739 470.623C190.158 470.864 189.647 471.211 189.208 471.665C188.782 472.119 188.449 472.651 188.208 473.261C187.981 473.871 187.868 474.537 187.868 475.26C187.868 475.984 187.981 476.65 188.208 477.26C188.449 477.87 188.782 478.409 189.208 478.877C189.647 479.331 190.158 479.685 190.739 479.94C191.321 480.181 191.952 480.302 192.633 480.302ZM202.991 482.727V467.836H209.65C210.628 467.836 211.515 468.056 212.309 468.496C213.117 468.921 213.755 469.517 214.223 470.283C214.706 471.048 214.947 471.942 214.947 472.963C214.947 473.956 214.713 474.835 214.245 475.601C213.777 476.352 213.16 476.948 212.394 477.388L213.755 479.77C213.812 479.855 213.883 479.926 213.968 479.983C214.053 480.025 214.152 480.047 214.266 480.047H215.712V482.727H213.798C213.202 482.727 212.656 482.578 212.16 482.28C211.678 481.983 211.295 481.593 211.011 481.11L209.331 478.09C209.203 478.09 209.068 478.09 208.926 478.09C208.799 478.09 208.671 478.09 208.544 478.09H206.033V482.727H202.991ZM206.033 475.409H209.288C209.77 475.409 210.21 475.317 210.607 475.133C211.004 474.934 211.316 474.651 211.543 474.282C211.784 473.913 211.905 473.473 211.905 472.963C211.905 472.452 211.784 472.013 211.543 471.644C211.302 471.275 210.983 470.999 210.586 470.814C210.203 470.616 209.77 470.517 209.288 470.517H206.033V475.409ZM225.341 482.727C224.462 482.727 223.689 482.529 223.022 482.131C222.356 481.72 221.838 481.181 221.469 480.515C221.1 479.834 220.916 479.089 220.916 478.281V470.517H216.768V467.836H228.106V470.517H223.958V478.643C223.958 479.026 224.093 479.359 224.362 479.643C224.632 479.912 224.958 480.047 225.341 480.047H226.404V482.727H225.341ZM236.434 482.982C235.229 482.982 234.158 482.734 233.222 482.238C232.3 481.741 231.57 481.039 231.031 480.132C230.506 479.21 230.244 478.118 230.244 476.856V467.836H233.286V477.047C233.286 477.643 233.413 478.189 233.669 478.685C233.924 479.167 234.285 479.557 234.753 479.855C235.236 480.153 235.796 480.302 236.434 480.302C237.086 480.302 237.647 480.153 238.115 479.855C238.583 479.557 238.944 479.167 239.199 478.685C239.455 478.189 239.582 477.643 239.582 477.047V467.836H242.624V476.856C242.624 478.118 242.355 479.21 241.816 480.132C241.291 481.039 240.561 481.741 239.625 482.238C238.703 482.734 237.639 482.982 236.434 482.982ZM255.961 482.982C255.081 482.982 254.308 482.784 253.642 482.387C252.975 481.975 252.458 481.437 252.089 480.77C251.72 480.089 251.536 479.345 251.536 478.536V471.665C251.536 471.41 251.472 471.176 251.344 470.963C251.217 470.751 251.047 470.58 250.834 470.453C250.621 470.325 250.387 470.261 250.132 470.261C249.877 470.261 249.643 470.325 249.43 470.453C249.231 470.58 249.068 470.751 248.941 470.963C248.813 471.176 248.749 471.41 248.749 471.665V482.727H245.707V472.027C245.707 471.204 245.891 470.46 246.26 469.793C246.629 469.127 247.147 468.595 247.813 468.198C248.48 467.787 249.253 467.581 250.132 467.581C251.025 467.581 251.805 467.787 252.472 468.198C253.138 468.595 253.656 469.127 254.025 469.793C254.393 470.46 254.578 471.204 254.578 472.027V478.898C254.578 479.153 254.642 479.387 254.769 479.6C254.897 479.813 255.06 479.983 255.259 480.111C255.471 480.238 255.705 480.302 255.961 480.302C256.216 480.302 256.45 480.238 256.663 480.111C256.875 479.983 257.045 479.813 257.173 479.6C257.301 479.387 257.365 479.153 257.365 478.898V467.836H260.407V478.536C260.407 479.345 260.222 480.089 259.853 480.77C259.485 481.437 258.967 481.975 258.301 482.387C257.634 482.784 256.854 482.982 255.961 482.982ZM267.396 482.727C266.573 482.727 265.821 482.529 265.141 482.131C264.474 481.734 263.942 481.203 263.545 480.536C263.148 479.855 262.95 479.104 262.95 478.281C262.95 477.685 263.077 477.125 263.333 476.601C263.588 476.076 263.935 475.615 264.375 475.218C263.935 474.821 263.588 474.36 263.333 473.835C263.077 473.31 262.95 472.757 262.95 472.176C262.95 471.367 263.141 470.637 263.524 469.985C263.921 469.332 264.446 468.815 265.098 468.432C265.765 468.035 266.495 467.836 267.289 467.836H273.416V470.517H267.63C267.332 470.517 267.055 470.595 266.8 470.751C266.559 470.892 266.36 471.091 266.204 471.346C266.063 471.587 265.992 471.864 265.992 472.176C265.992 472.474 266.063 472.75 266.204 473.005C266.36 473.247 266.559 473.445 266.8 473.601C267.055 473.743 267.332 473.814 267.63 473.814H272.693V476.494H267.757C267.431 476.494 267.133 476.579 266.864 476.749C266.594 476.905 266.382 477.118 266.226 477.388C266.07 477.657 265.992 477.955 265.992 478.281C265.992 478.607 266.07 478.905 266.226 479.175C266.382 479.444 266.594 479.657 266.864 479.813C267.133 479.969 267.431 480.047 267.757 480.047H273.416V482.727H267.396Z" fill="#669BD7"/>
<path d="M292.396 481.415C292.38 481.478 292.342 481.533 292.288 481.573C292.234 481.613 292.167 481.635 292.098 481.636C292.029 481.637 291.961 481.616 291.906 481.578C291.851 481.539 291.812 481.484 291.794 481.423C291.455 480.218 290.927 478.778 290.126 477.922C289.148 476.876 287.736 476.431 286.427 476.172C286.358 476.158 286.296 476.123 286.252 476.073C286.208 476.022 286.184 475.959 286.184 475.894C286.184 475.829 286.208 475.766 286.252 475.716C286.296 475.665 286.358 475.63 286.427 475.616C287.723 475.363 289.152 474.918 290.103 473.975C291.008 473.077 291.519 471.27 291.804 470.044C291.819 469.981 291.856 469.924 291.911 469.883C291.965 469.842 292.033 469.819 292.103 469.818C292.174 469.817 292.242 469.838 292.298 469.878C292.353 469.918 292.392 469.974 292.409 470.037C292.727 471.265 293.294 473.075 294.2 473.975C295.18 474.838 296.421 475.407 297.76 475.608C297.829 475.623 297.891 475.658 297.935 475.709C297.979 475.76 298.002 475.823 298.002 475.888C298.001 475.954 297.976 476.016 297.931 476.067C297.886 476.117 297.824 476.152 297.755 476.165C296.413 476.412 294.942 476.836 293.965 477.882C293.164 478.738 292.704 480.2 292.396 481.415Z" fill="#FAC962" stroke="#FAC962" stroke-width="1.18182"/>
</g>
<rect x="4" y="4" width="322" height="512" rx="36" stroke="white" stroke-width="8"/>
<defs>
<clipPath id="clip0_2242_32032">
<rect width="330" height="520" rx="40" fill="white"/>
</clipPath>
</defs>
</svg>
